# xmcd CD database file
#
# Track frame offsets:
#	150
#	22726
#	44407
#	70250
#
# Disc length: 1236 seconds
#
# Revision: 0
# Processed by: cddbd v1.5PL3 Copyright (c) Steve Scherf et al.
# Submitted via: CDex 1.51
#
DISCID=2a04d204
DTITLE=Skoop On Somebody - Sing A Song
DYEAR=2003
DGENRE=JPop
TTITLE0=Sing A Song
TTITLE1=Wanna,Wanna,Wanna
TTITLE2=ぼくが地球を救う?Sounds Of Spirit?（Club SOS Version）
TTITLE3=Sing A Song（Less Vocal）
EXTD=YEAR: 2003
EXTT0=
EXTT1=
EXTT2=
EXTT3=
PLAYORDER=
